<?xml version="1.0" encoding="iso-8859-1"?>
<!-- Generator: Adobe Illustrator 18.0.0, SVG Export Plug-In . SVG Version: 6.00 Build 0)  -->
<!DOCTYPE svg PUBLIC "-//W3C//DTD SVG 1.1//EN" "http://www.w3.org/Graphics/SVG/1.1/DTD/svg11.dtd">
<svg version="1.1" id="Capa_1" xmlns="http://www.w3.org/2000/svg" xmlns:xlink="http://www.w3.org/1999/xlink" x="0px" y="0px"
	 viewBox="0 0 297 297" style="enable-background:new 0 0 297 297;" xml:space="preserve">
<g>
	<path d="M296.407,108.939c-1.997-10.381-8.836-17.764-17.85-19.267c-44.83-7.479-67.003-20.646-84.732-50.317
		c-1.816-3.041-5.098-4.902-8.641-4.902h-73.368c-3.543,0-6.824,1.861-8.641,4.902c-17.73,29.672-39.902,42.839-84.731,50.317
		C9.43,91.175,2.591,98.558,0.593,108.939c-2.027,10.546,0.885,24.656,12.744,38.111h270.327
		C295.522,133.595,298.435,119.486,296.407,108.939z M148.5,127.925c-13.043,0-23.654-10.611-23.654-23.654
		s10.611-23.654,23.654-23.654s23.654,10.611,23.654,23.654S161.543,127.925,148.5,127.925z"/>
	<path d="M148.5,94.708c-5.273,0-9.563,4.29-9.563,9.563c0,5.273,4.29,9.563,9.563,9.563c5.272,0,9.562-4.289,9.562-9.563
		C158.063,98.998,153.773,94.708,148.5,94.708z"/>
	<path d="M266.959,180.267c5.278,0,9.596-4.05,9.596-9v-1.125c0-4.95-4.317-9-9.596-9H30.041c-5.281,0-9.596,4.05-9.596,9v1.125
		c0,4.95,4.315,9,9.596,9H266.959z"/>
	<path d="M62.341,242.788c23.539,12.742,54.139,19.76,86.159,19.76c32.022,0,62.622-7.018,86.161-19.76
		c23.5-12.721,37.482-30.232,38.852-48.429H23.488C24.857,212.556,38.839,230.068,62.341,242.788z"/>
</g>
<g>
</g>
<g>
</g>
<g>
</g>
<g>
</g>
<g>
</g>
<g>
</g>
<g>
</g>
<g>
</g>
<g>
</g>
<g>
</g>
<g>
</g>
<g>
</g>
<g>
</g>
<g>
</g>
<g>
</g>
</svg>
